<?xml version="1.0" encoding="UTF-8"?>
<svg viewBox="0 0 131.01476 143.94528" xmlns="http://www.w3.org/2000/svg">
 <g transform="translate(-276.26 -420.66)">
  <path d="m380.91 553.93c0 4.0824-6.2981 8.6704-24.741 8.6704-8.2906 0-10.007-5.2495-15.034-5.2421-4.7846 0.00705-5.6306 5.227-14.519 5.227-18.263 0-25.256-4.6002-25.256-8.6553 0-4.6165 17.819-8.3632 39.775-8.3632s39.775 3.7467 39.775 8.3632z" fill="#d45500" stroke="#000" stroke-linecap="round" stroke-linejoin="round" stroke-width="4"/>
  <path d="m341.31 422.66v0.03125c-30.52 0.73365-27.691 29.766-38.656 46.094-11.365 16.923-27.417 33.95-23.906 54.156 3.9744 22.873 8.7932-1.2648 24.531 13.844 9.6782 9.2911 9.8357 17.057 37.281 17 0.79857-0.00166 1.5292 0.0151 2.375 0 27.46 0.05984 27.601-7.7073 37.281-17 15.738-15.109 20.588 9.0291 24.562-13.844 3.511-20.206-12.542-37.234-23.906-54.156-10.966-16.329-8.1573-45.366-38.688-46.094v-0.03125h-0.875z" fill-rule="evenodd" stroke="#000" stroke-width="4"/>
  <path d="m305.53 468.75c-0.35643 0.60949-0.73595 1.2019-1.125 1.7812-8.8725 13.212-20.609 26.479-23.656 41.281 16.67-5.474 28.188-17.14 28.188-30.656 0-4.378-1.2051-8.5618-3.4062-12.406z" fill="#333"/>
  <path transform="matrix(1 0 0 .85042 -2.5 62.025)" d="m364.75 439.36a20.375 13 0 1 1 -40.75 0 20.375 13 0 1 1 40.75 0z" fill="#333"/>
  <path d="m341.19 478.17c-20.845 0-37.755 19.02-37.755 42.47 0 5.2519 0.85061 10.293 2.4018 14.938 8.8901 8.6293 9.2185 15.811 34.767 15.758 0.74848-0.00155 1.4333 0.01416 2.226 0 23.925 0.05215 25.733-6.2355 33.156-14.118 0.0032-0.00852-0.00321-0.02077 0-0.02929 1.9117-5.082 2.9876-10.686 2.9876-16.549 0-23.45-16.939-42.47-37.784-42.47z" fill="#ccc"/>
  <path transform="translate(276.26 420.66)" d="m54.25 62.094c-12.123 4.2352-20.781 15.432-20.781 28.562 0 16.764 14.121 30.375 31.531 30.375s31.531-13.611 31.531-30.375c0-12.8-8.2305-23.751-19.875-28.219-1.6004 5.275-6.8341 12.688-11.156 12.688-3.922 0-9.7334-7.4785-11.25-13.031z" fill="#fff"/>
  <path d="m332.56 438.69c-6.4001 0-11.6 6.5574-11.6 14.657s5.1996 14.687 11.6 14.687c3.7594 0 7.09-2.2842 9.2089-5.7974 2.1191 3.5103 5.4513 5.7974 9.2089 5.7974 6.4001 0 11.6-6.5872 11.6-14.687s-5.1996-14.657-11.6-14.657c-3.7576 0-7.0898 2.2573-9.2089 5.7677-2.119-3.5132-5.4495-5.7677-9.2089-5.7677z" fill="#fff" stroke="#000" stroke-linecap="round" stroke-linejoin="round" stroke-width="4"/>
  <path transform="translate(-19.361 -3.4066)" d="m360.72 458.09a5.0362 5.0362 0 1 1 -10.072 0 5.0362 5.0362 0 1 1 10.072 0z"/>
  <path d="m353.41 469.7c0 4.8698-6.4765 15.468-11.646 15.468-4.5401 0-11.646-10.01-11.646-15.468 0-5.4947 5.2175-7.8241 11.646-7.8241s11.646 3.6246 11.646 7.8241z" fill="#d45500" stroke="#000" stroke-linecap="round" stroke-linejoin="round" stroke-width="4"/>
  <path transform="matrix(.49103 0 0 .31552 161.4 307.94)" d="m360.72 458.09a5.0362 5.0362 0 1 1 -10.072 0 5.0362 5.0362 0 1 1 10.072 0z" fill="#666"/>
  <path transform="translate(-8.7916 -3.4066)" d="m360.72 458.09a5.0362 5.0362 0 1 1 -10.072 0 5.0362 5.0362 0 1 1 10.072 0z"/>
  <path transform="matrix(.49103 0 0 .31552 171.97 307.94)" d="m360.72 458.09a5.0362 5.0362 0 1 1 -10.072 0 5.0362 5.0362 0 1 1 10.072 0z" fill="#666"/>
  <path transform="matrix(.5 0 .61246 2.2857 -121.06 -601.08)" d="m348.43 469.71a6.364 2.4749 0 1 1 -12.728 0 6.364 2.4749 0 1 1 12.728 0z" fill="#ff7f2a"/>
  <path d="m376.79 468.75c0.35643 0.60949 0.73595 1.2019 1.125 1.7812 8.8725 13.212 20.609 26.479 23.656 41.281-16.67-5.474-28.188-17.14-28.188-30.656 0-4.378 1.2051-8.5618 3.4062-12.406z" fill="#333"/>
 </g>
</svg>
